<?xml version="1.0" encoding="UTF-8"?>
<!DOCTYPE svg PUBLIC "-//W3C//DTD SVG 1.1//EN" "http://www.w3.org/Graphics/SVG/1.1/DTD/svg11.dtd">
<svg xmlns="http://www.w3.org/2000/svg" version="1.1" width="563px" height="207px" style="shape-rendering:geometricPrecision; text-rendering:geometricPrecision; image-rendering:optimizeQuality; fill-rule:evenodd; clip-rule:evenodd" xmlns:xlink="http://www.w3.org/1999/xlink">
<g><path style="opacity:1" fill="#fcfdfe" d="M -0.5,-0.5 C 187.167,-0.5 374.833,-0.5 562.5,-0.5C 562.5,68.5 562.5,137.5 562.5,206.5C 374.833,206.5 187.167,206.5 -0.5,206.5C -0.5,137.5 -0.5,68.5 -0.5,-0.5 Z"/></g>
<g><path style="opacity:1" fill="#cbe9f2" d="M 125.5,35.5 C 125.636,25.6492 120.969,22.3159 111.5,25.5C 111.414,24.5041 111.748,23.6708 112.5,23C 118.168,21.516 122.668,23.016 126,27.5C 126.801,30.367 126.634,33.0336 125.5,35.5 Z"/></g>
<g><path style="opacity:1" fill="#3c7ca8" d="M 125.5,35.5 C 122.771,40.5386 118.438,42.5386 112.5,41.5C 112.198,44.0593 112.532,46.3926 113.5,48.5C 113.158,49.3382 112.492,49.6716 111.5,49.5C 107.958,49.8128 104.625,49.4794 101.5,48.5C 103.833,48.5 106.167,48.5 108.5,48.5C 108.5,46.1667 108.5,43.8333 108.5,41.5C 106.167,41.5 103.833,41.5 101.5,41.5C 104.565,40.1816 107.731,40.1816 111,41.5C 112.067,40.8095 113.234,40.3095 114.5,40C 112.005,37.0837 110.838,33.5837 111,29.5C 111.053,32.6752 110.22,35.3419 108.5,37.5C 107.885,33.0088 108.885,29.0088 111.5,25.5C 120.969,22.3159 125.636,25.6492 125.5,35.5 Z"/></g>
<g><path style="opacity:1" fill="#ebfbfc" d="M 114.5,27.5 C 122.49,27.0859 124.49,30.2525 120.5,37C 117.854,37.4974 115.187,37.6641 112.5,37.5C 112.034,33.838 112.701,30.5046 114.5,27.5 Z"/></g>
<g><path style="opacity:1" fill="#daf2f8" d="M 41.5,26.5 C 31.0009,21.846 26.1676,25.1793 27,36.5C 27.6622,37.9839 28.4955,39.3172 29.5,40.5C 25.4944,39.4632 23.8277,36.7966 24.5,32.5C 25.0456,29.4344 25.7123,26.4344 26.5,23.5C 30.836,22.3661 35.1693,22.3661 39.5,23.5C 40.6119,24.2652 41.2786,25.2652 41.5,26.5 Z"/></g>
<g><path style="opacity:1" fill="#e4f2f8" d="M 67.5,52.5 C 67.5654,52.9382 67.3988,53.2716 67,53.5C 63.6581,49.0779 59.1581,47.4112 53.5,48.5C 52.9898,45.6122 53.6565,43.2789 55.5,41.5C 60.6108,42.1115 64.6108,40.2782 67.5,36C 70.101,36.4007 72.101,37.9007 73.5,40.5C 71.8509,42.6499 70.0176,44.6499 68,46.5C 67.5045,48.4727 67.3379,50.4727 67.5,52.5 Z"/></g>
<g><path style="opacity:1" fill="#1a3563" d="M 101.5,36.5 C 100.086,38.918 98.0857,40.5847 95.5,41.5C 93.8008,41.6602 92.1341,41.4935 90.5,41C 88.0232,39.3573 85.6898,37.524 83.5,35.5C 80.9007,36.899 79.4007,38.899 79,41.5C 80.6667,43.1667 82.3333,44.8333 84,46.5C 84.4966,48.8098 84.6633,51.1432 84.5,53.5C 83.8333,53.5 83.5,53.8333 83.5,54.5C 82.8333,55.5 82.1667,56.5 81.5,57.5C 79.6203,57.7709 78.287,57.1042 77.5,55.5C 83.1024,50.9674 82.6024,46.9674 76,43.5C 69.6027,47.0221 69.1027,51.0221 74.5,55.5C 74.0269,56.9063 73.0269,57.573 71.5,57.5C 70.1667,56.8333 69.1667,55.8333 68.5,54.5C 68.6716,53.5084 68.3382,52.8417 67.5,52.5C 67.3379,50.4727 67.5045,48.4727 68,46.5C 70.0176,44.6499 71.8509,42.6499 73.5,40.5C 72.101,37.9007 70.101,36.4007 67.5,36C 64.6108,40.2782 60.6108,42.1115 55.5,41.5C 53.082,40.0857 51.4153,38.0857 50.5,35.5C 49.7715,27.3952 53.4382,23.8952 61.5,25C 64.2356,26.3622 66.5689,28.1956 68.5,30.5C 71.0993,29.101 72.5993,27.101 73,24.5C 66.4531,19.3805 65.9531,13.8805 71.5,8C 78.9292,5.43727 83.2625,7.93727 84.5,15.5C 83.1701,19.5941 81.3367,23.2608 79,26.5C 80.3513,28.019 81.8513,29.3523 83.5,30.5C 85.6499,28.8509 87.6499,27.0176 89.5,25C 98.718,23.7204 102.718,27.5537 101.5,36.5 Z"/></g>
<g><path style="opacity:1" fill="#e4eff6" d="M 90.5,27.5 C 96.4738,27.0484 98.9738,29.715 98,35.5C 94.0214,39.6438 90.3547,39.3104 87,34.5C 86.3333,33.5 86.3333,32.5 87,31.5C 88.3756,30.2949 89.5423,28.9616 90.5,27.5 Z"/></g>
<g><path style="opacity:1" fill="#e5f0f7" d="M 56.5,27.5 C 61.7397,27.2582 64.573,29.5915 65,34.5C 58.2414,40.739 54.5747,39.4057 54,30.5C 55.045,29.6266 55.8783,28.6266 56.5,27.5 Z"/></g>
<g><path style="opacity:1" fill="#e2eff5" d="M 75.5,28.5 C 81.9048,31.2016 82.0715,34.2016 76,37.5C 73.8333,36.6667 72.3333,35.1667 71.5,33C 73.0182,31.6494 74.3515,30.1494 75.5,28.5 Z"/></g>
<g><path style="opacity:1" fill="#ebf3f8" d="M 73.5,10.5 C 80.241,10.3902 82.4077,13.3902 80,19.5C 75.1023,23.5547 71.9356,22.2214 70.5,15.5C 70.7573,13.3076 71.7573,11.6409 73.5,10.5 Z"/></g>
<g><path style="opacity:1" fill="#3175a6" d="M 41.5,26.5 C 43.2221,29.9196 43.8887,33.5863 43.5,37.5C 46.3878,38.0102 48.7211,37.3435 50.5,35.5C 51.4153,38.0857 53.082,40.0857 55.5,41.5C 53.6565,43.2789 52.9898,45.6122 53.5,48.5C 59.1581,47.4112 63.6581,49.0779 67,53.5C 67.3988,53.2716 67.5654,52.9382 67.5,52.5C 68.3382,52.8417 68.6716,53.5084 68.5,54.5C 68.2233,62.7679 63.8899,66.4346 55.5,65.5C 51.0395,62.4192 49.3728,58.0859 50.5,52.5C 47.6122,51.9898 45.2789,52.6565 43.5,54.5C 42.7321,53.7375 42.2321,52.7375 42,51.5C 40.3484,50.6006 38.8484,49.6006 37.5,48.5C 38.5,48.5 39.5,48.5 40.5,48.5C 40.5,46.1667 40.5,43.8333 40.5,41.5C 36.7657,41.6773 33.0991,41.3439 29.5,40.5C 28.4955,39.3172 27.6622,37.9839 27,36.5C 26.1676,25.1793 31.0009,21.846 41.5,26.5 Z"/></g>
<g><path style="opacity:1" fill="#d8f2f8" d="M 31.5,27.5 C 38.9131,27.2604 41.9131,30.927 40.5,38.5C 30.9545,39.6487 27.9545,35.982 31.5,27.5 Z"/></g>
<g><path style="opacity:1" fill="#e9f5f9" d="M 95.5,41.5 C 96.5,41.5 97.5,41.5 98.5,41.5C 98.8016,44.0593 98.4682,46.3926 97.5,48.5C 91.959,47.3756 87.6257,49.0423 84.5,53.5C 84.6633,51.1432 84.4966,48.8098 84,46.5C 82.3333,44.8333 80.6667,43.1667 79,41.5C 79.4007,38.899 80.9007,36.899 83.5,35.5C 85.6898,37.524 88.0232,39.3573 90.5,41C 92.1341,41.4935 93.8008,41.6602 95.5,41.5 Z"/></g>
<g><path style="opacity:1" fill="#e7fcfd" d="M 101.5,41.5 C 103.833,41.5 106.167,41.5 108.5,41.5C 108.5,43.8333 108.5,46.1667 108.5,48.5C 106.167,48.5 103.833,48.5 101.5,48.5C 101.5,46.1667 101.5,43.8333 101.5,41.5 Z"/></g>
<g><path style="opacity:1" fill="#266fa6" d="M 101.5,41.5 C 101.5,43.8333 101.5,46.1667 101.5,48.5C 104.625,49.4794 107.958,49.8128 111.5,49.5C 109.701,52.5046 109.034,55.838 109.5,59.5C 108.527,57.0521 108.194,54.3854 108.5,51.5C 105.941,51.1984 103.607,51.5318 101.5,52.5C 101.028,54.5313 100.028,56.1979 98.5,57.5C 98.7947,55.2646 98.4614,53.2646 97.5,51.5C 97.5,50.5 97.5,49.5 97.5,48.5C 98.4682,46.3926 98.8016,44.0593 98.5,41.5C 97.5,41.5 96.5,41.5 95.5,41.5C 98.0857,40.5847 100.086,38.918 101.5,36.5C 102.152,37.7251 103.319,38.3917 105,38.5C 106.385,38.4857 107.551,38.1524 108.5,37.5C 110.22,35.3419 111.053,32.6752 111,29.5C 110.838,33.5837 112.005,37.0837 114.5,40C 113.234,40.3095 112.067,40.8095 111,41.5C 107.731,40.1816 104.565,40.1816 101.5,41.5 Z"/></g>
<g><path style="opacity:1" fill="#ddfcfe" d="M 43.5,41.5 C 45.8333,41.5 48.1667,41.5 50.5,41.5C 50.5,43.8333 50.5,46.1667 50.5,48.5C 48.1667,48.5 45.8333,48.5 43.5,48.5C 43.5,46.1667 43.5,43.8333 43.5,41.5 Z"/></g>
<g><path style="opacity:1" fill="#eef6fa" d="M 77.5,55.5 C 76.5,55.5 75.5,55.5 74.5,55.5C 69.1027,51.0221 69.6027,47.0221 76,43.5C 82.6024,46.9674 83.1024,50.9674 77.5,55.5 Z"/></g>
<g><path style="opacity:1" fill="#87bcda" d="M 90.5,52.5 C 92.6074,51.5318 94.9407,51.1984 97.5,51.5C 98.4614,53.2646 98.7947,55.2646 98.5,57.5C 98.6716,58.4916 98.3382,59.1583 97.5,59.5C 97.5,57.1667 97.5,54.8333 97.5,52.5C 95.1667,52.5 92.8333,52.5 90.5,52.5 Z"/></g>
<g><path style="opacity:1" fill="#bbe3f0" d="M 63.5,59.5 C 63.822,57.2776 63.1554,55.4443 61.5,54C 59.1902,53.5034 56.8568,53.3367 54.5,53.5C 54.5,55.5 54.5,57.5 54.5,59.5C 53.5269,57.0521 53.1936,54.3854 53.5,51.5C 56.6492,51.2114 59.6492,51.7114 62.5,53C 64.6082,55.0164 64.9416,57.1831 63.5,59.5 Z"/></g>
<g><path style="opacity:1" fill="#ecf6fa" d="M 55.5,65.5 C 53.1432,65.3367 50.8098,65.5034 48.5,66C 46.5985,68.6131 44.2652,70.2797 41.5,71C 39.981,69.6487 38.6477,68.1487 37.5,66.5C 38.8149,64.6841 40.3149,63.0175 42,61.5C 43.2022,59.3225 43.7022,56.9892 43.5,54.5C 45.2789,52.6565 47.6122,51.9898 50.5,52.5C 49.3728,58.0859 51.0395,62.4192 55.5,65.5 Z"/></g>
<g><path style="opacity:1" fill="#effdfe" d="M 63.5,59.5 C 60.5,63.5 57.5,63.5 54.5,59.5C 54.5,57.5 54.5,55.5 54.5,53.5C 56.8568,53.3367 59.1902,53.5034 61.5,54C 63.1554,55.4443 63.822,57.2776 63.5,59.5 Z"/></g>
<g><path style="opacity:1" fill="#eaf5fa" d="M 109.5,59.5 C 110.728,62.0751 112.395,64.4084 114.5,66.5C 113.167,68.5 111.5,70.1667 109.5,71.5C 106.317,67.0759 101.983,65.0759 96.5,65.5C 100.96,62.4192 102.627,58.0859 101.5,52.5C 103.607,51.5318 105.941,51.1984 108.5,51.5C 108.194,54.3854 108.527,57.0521 109.5,59.5 Z"/></g>
<g><path style="opacity:1" fill="#1c3765" d="M 113.5,48.5 C 122.657,47.4892 126.49,51.4892 125,60.5C 123.691,62.9757 121.858,64.9757 119.5,66.5C 120.648,68.1487 121.981,69.6487 123.5,71C 126.739,68.6633 130.406,66.8299 134.5,65.5C 142.205,66.915 144.705,71.2483 142,78.5C 136.681,83.941 131.514,83.7743 126.5,78C 119.196,79.6391 118.696,82.8058 125,87.5C 126.922,93.3826 125.089,97.5493 119.5,100C 117.402,100.678 115.402,100.511 113.5,99.5C 109.989,96.8047 108.656,93.1381 109.5,88.5C 110.728,85.9249 112.395,83.5916 114.5,81.5C 113.352,79.8513 112.019,78.3513 110.5,77C 108,79.2683 105,81.1016 101.5,82.5C 98.1694,82.9819 95.5027,81.9819 93.5,79.5C 93.2627,78.209 93.596,77.209 94.5,76.5C 99.5139,80.997 103.514,80.1637 106.5,74C 102.978,67.6027 98.9779,67.1027 94.5,72.5C 93.0937,72.0269 92.427,71.0269 92.5,69.5C 93.8333,68.1667 95.1667,66.8333 96.5,65.5C 101.983,65.0759 106.317,67.0759 109.5,71.5C 111.5,70.1667 113.167,68.5 114.5,66.5C 112.395,64.4084 110.728,62.0751 109.5,59.5C 109.034,55.838 109.701,52.5046 111.5,49.5C 112.492,49.6716 113.158,49.3382 113.5,48.5 Z"/></g>
<g><path style="opacity:1" fill="#e9f1f6" d="M 114.5,51.5 C 120.665,50.8293 123.165,53.496 122,59.5C 116.904,65.1969 113.404,64.1969 111.5,56.5C 112.092,54.5775 113.092,52.9108 114.5,51.5 Z"/></g>
<g><path style="opacity:1" fill="#3476a2" d="M 97.5,48.5 C 97.5,49.5 97.5,50.5 97.5,51.5C 94.9407,51.1984 92.6074,51.5318 90.5,52.5C 87.1265,54.8796 86.6265,57.8796 89,61.5C 92.4915,63.2285 95.3248,62.5618 97.5,59.5C 98.3382,59.1583 98.6716,58.4916 98.5,57.5C 100.028,56.1979 101.028,54.5313 101.5,52.5C 102.627,58.0859 100.96,62.4192 96.5,65.5C 88.156,66.4852 83.8227,62.8185 83.5,54.5C 83.5,53.8333 83.8333,53.5 84.5,53.5C 87.6257,49.0423 91.959,47.3756 97.5,48.5 Z"/></g>
<g><path style="opacity:1" fill="#e2f9fc" d="M 90.5,52.5 C 92.8333,52.5 95.1667,52.5 97.5,52.5C 97.5,54.8333 97.5,57.1667 97.5,59.5C 95.3248,62.5618 92.4915,63.2285 89,61.5C 86.6265,57.8796 87.1265,54.8796 90.5,52.5 Z"/></g>
<g><path style="opacity:1" fill="#d2dfec" d="M 26.5,59.5 C 28.2553,61.9883 30.2553,64.3216 32.5,66.5C 31.1667,68.5 29.5,70.1667 27.5,71.5C 26.1451,70.8118 25.1451,69.8118 24.5,68.5C 25.5832,68.5394 26.5832,68.8728 27.5,69.5C 27.8333,68.8333 28.1667,68.1667 28.5,67.5C 27.238,64.978 26.5713,62.3113 26.5,59.5 Z"/></g>
<g><path style="opacity:1" fill="#d3f1f8" d="M 68.5,54.5 C 69.1667,55.8333 70.1667,56.8333 71.5,57.5C 70.621,59.228 69.9543,61.0614 69.5,63C 70.8001,65.5738 71.9668,68.0738 73,70.5C 72.586,70.9574 72.086,71.2907 71.5,71.5C 67.9035,68.4561 63.9035,67.7895 59.5,69.5C 58.4726,67.8058 57.1392,66.4725 55.5,65.5C 63.8899,66.4346 68.2233,62.7679 68.5,54.5 Z"/></g>
<g><path style="opacity:1" fill="#d1f1f8" d="M 83.5,54.5 C 83.8227,62.8185 88.156,66.4852 96.5,65.5C 95.1667,66.8333 93.8333,68.1667 92.5,69.5C 90.874,69.0617 89.2073,68.7284 87.5,68.5C 84.8259,69.5145 82.1592,70.5145 79.5,71.5C 79.9556,68.3557 80.9556,65.3557 82.5,62.5C 81.9537,60.8653 81.6204,59.1986 81.5,57.5C 82.1667,56.5 82.8333,55.5 83.5,54.5 Z"/></g>
<g><path style="opacity:1" fill="#ebf3f8" d="M 57.5,72.5 C 57.5,73.5 57.5,74.5 57.5,75.5C 52.9674,81.1024 48.9674,80.6024 45.5,74C 48.9163,67.41 52.9163,66.91 57.5,72.5 Z"/></g>
<g><path style="opacity:1" fill="#e5eff6" d="M 94.5,76.5 C 94.5,75.1667 94.5,73.8333 94.5,72.5C 98.9779,67.1027 102.978,67.6027 106.5,74C 103.514,80.1637 99.5139,80.997 94.5,76.5 Z"/></g>
<g><path style="opacity:1" fill="#e4f0f7" d="M 116.5,69.5 C 122.905,72.2016 123.071,75.2016 117,78.5C 115.161,77.328 113.661,75.828 112.5,74C 114.041,72.6288 115.375,71.1288 116.5,69.5 Z"/></g>
<g><path style="opacity:1" fill="#2d75a8" d="M 74.5,55.5 C 75.5,55.5 76.5,55.5 77.5,55.5C 78.287,57.1042 79.6203,57.7709 81.5,57.5C 81.6204,59.1986 81.9537,60.8653 82.5,62.5C 80.9556,65.3557 79.9556,68.3557 79.5,71.5C 82.1592,70.5145 84.8259,69.5145 87.5,68.5C 89.2073,68.7284 90.874,69.0617 92.5,69.5C 92.427,71.0269 93.0937,72.0269 94.5,72.5C 94.5,73.8333 94.5,75.1667 94.5,76.5C 93.596,77.209 93.2627,78.209 93.5,79.5C 91.5122,79.8271 89.5122,80.1604 87.5,80.5C 84.8259,79.4855 82.1592,78.4855 79.5,77.5C 80.6069,80.2307 81.6069,83.064 82.5,86C 82.0566,87.825 81.7233,89.6583 81.5,91.5C 80.209,91.2627 79.209,91.596 78.5,92.5C 76.8333,92.5 75.1667,92.5 73.5,92.5C 72.791,91.596 71.791,91.2627 70.5,91.5C 70.6107,90.8826 70.944,90.3826 71.5,90C 70.1059,89.044 69.4393,87.7106 69.5,86C 70.8001,83.4262 71.9668,80.9262 73,78.5C 72.4387,77.9781 71.772,77.6448 71,77.5C 67.6353,80.5889 63.802,81.2556 59.5,79.5C 59.3404,77.847 58.6737,76.5137 57.5,75.5C 57.5,74.5 57.5,73.5 57.5,72.5C 58.9063,72.0269 59.573,71.0269 59.5,69.5C 63.9035,67.7895 67.9035,68.4561 71.5,71.5C 72.086,71.2907 72.586,70.9574 73,70.5C 71.9668,68.0738 70.8001,65.5738 69.5,63C 69.9543,61.0614 70.621,59.228 71.5,57.5C 73.0269,57.573 74.0269,56.9063 74.5,55.5 Z"/></g>
<g><path style="opacity:1" fill="#b7ecf8" d="M 74.5,72.5 C 76.3464,72.2222 77.6798,72.8888 78.5,74.5C 77.6798,76.1112 76.3464,76.7778 74.5,76.5C 74.5,75.1667 74.5,73.8333 74.5,72.5 Z"/></g>
<g><path style="opacity:1" fill="#ccf0f9" d="M 85.5,71.5 C 90.1585,71.0146 91.4919,72.848 89.5,77C 84.7282,77.8104 83.3948,75.9771 85.5,71.5 Z"/></g>
<g><path style="opacity:1" fill="#c8eff9" d="M 62.5,71.5 C 66.0289,70.8894 67.8622,72.2227 68,75.5C 62.6479,78.877 60.8145,77.5437 62.5,71.5 Z"/></g>
<g><path style="opacity:1" fill="#cff2f7" d="M 74.5,59.5 C 80.0761,60.5554 80.7428,62.8888 76.5,66.5C 73.4974,64.8219 72.8307,62.4886 74.5,59.5 Z"/></g>
<g><path style="opacity:1" fill="#1b3563" d="M 37.5,48.5 C 38.8484,49.6006 40.3484,50.6006 42,51.5C 42.2321,52.7375 42.7321,53.7375 43.5,54.5C 43.7022,56.9892 43.2022,59.3225 42,61.5C 40.3149,63.0175 38.8149,64.6841 37.5,66.5C 38.6477,68.1487 39.981,69.6487 41.5,71C 44.2652,70.2797 46.5985,68.6131 48.5,66C 50.8098,65.5034 53.1432,65.3367 55.5,65.5C 57.1392,66.4725 58.4726,67.8058 59.5,69.5C 59.573,71.0269 58.9063,72.0269 57.5,72.5C 52.9163,66.91 48.9163,67.41 45.5,74C 48.9674,80.6024 52.9674,81.1024 57.5,75.5C 58.6737,76.5137 59.3404,77.847 59.5,79.5C 58.5,80.1667 57.5,80.8333 56.5,81.5C 55.8333,81.5 55.5,81.8333 55.5,82.5C 53.1432,82.6633 50.8098,82.4966 48.5,82C 46.0226,80.135 43.6892,78.4683 41.5,77C 39.981,78.3513 38.6477,79.8513 37.5,81.5C 39.1491,83.6499 40.9824,85.6499 43,87.5C 43.4955,89.4727 43.6621,91.4727 43.5,93.5C 42.2993,95.9095 40.6326,97.9095 38.5,99.5C 33.7274,101.21 29.894,99.8765 27,95.5C 26.3333,92.8333 26.3333,90.1667 27,87.5C 29.0176,85.6499 30.8509,83.6499 32.5,81.5C 31.101,78.9007 29.101,77.4007 26.5,77C 21.4625,83.6527 15.9625,84.1527 10,78.5C 7.43727,71.0708 9.93727,66.7375 17.5,65.5C 20.2181,65.6946 22.5514,66.6946 24.5,68.5C 25.1451,69.8118 26.1451,70.8118 27.5,71.5C 29.5,70.1667 31.1667,68.5 32.5,66.5C 30.2553,64.3216 28.2553,61.9883 26.5,59.5C 25.8333,51.5 29.5,47.8333 37.5,48.5 Z"/></g>
<g><path style="opacity:1" fill="#ddeaf4" d="M 33.5,69.5 C 36.381,69.6976 38.381,71.1976 39.5,74C 36.5,80 33.5,80 30.5,74C 31.3146,72.3566 32.3146,70.8566 33.5,69.5 Z"/></g>
<g><path style="opacity:1" fill="#e8f2f6" d="M 15.5,68.5 C 18.8411,68.6559 21.6745,69.9892 24,72.5C 23.8032,76.6986 21.4699,79.0319 17,79.5C 14.1849,78.5145 12.6849,76.5145 12.5,73.5C 12.7705,71.3074 13.7705,69.6407 15.5,68.5 Z"/></g>
<g><path style="opacity:1" fill="#e9f2f8" d="M 31.5,51.5 C 41.2146,51.8643 42.8813,55.6976 36.5,63C 33.3386,63.2033 31.1719,61.7033 30,58.5C 29.3996,55.9047 29.8996,53.5713 31.5,51.5 Z"/></g>
<g><path style="opacity:1" fill="#e8f2f7" d="M 132.5,68.5 C 136.473,68.3107 138.806,70.144 139.5,74C 139.414,78.7485 137.08,80.4152 132.5,79C 130.36,78.0267 128.693,76.5267 127.5,74.5C 129.19,72.4807 130.856,70.4807 132.5,68.5 Z"/></g>
<g><path style="opacity:1" fill="#f1f8fb" d="M 109.5,88.5 C 108.532,90.6074 108.198,92.9407 108.5,95.5C 106.5,95.5 104.5,95.5 102.5,95.5C 102.628,91.1186 102.295,86.7853 101.5,82.5C 105,81.1016 108,79.2683 110.5,77C 112.019,78.3513 113.352,79.8513 114.5,81.5C 112.395,83.5916 110.728,85.9249 109.5,88.5 Z"/></g>
<g><path style="opacity:1" fill="#cceff8" d="M 70.5,91.5 C 69.2719,92.3065 68.2719,93.3065 67.5,94.5C 68.4852,86.156 64.8185,81.8227 56.5,81.5C 57.5,80.8333 58.5,80.1667 59.5,79.5C 63.802,81.2556 67.6353,80.5889 71,77.5C 71.772,77.6448 72.4387,77.9781 73,78.5C 71.9668,80.9262 70.8001,83.4262 69.5,86C 69.4393,87.7106 70.1059,89.044 71.5,90C 70.944,90.3826 70.6107,90.8826 70.5,91.5 Z"/></g>
<g><path style="opacity:1" fill="#ecf7fb" d="M 55.5,82.5 C 53.6932,83.8362 52.1932,85.5029 51,87.5C 50.502,90.4816 50.3354,93.4816 50.5,96.5C 48.1667,96.5 45.8333,96.5 43.5,96.5C 43.5,95.5 43.5,94.5 43.5,93.5C 43.6621,91.4727 43.4955,89.4727 43,87.5C 40.9824,85.6499 39.1491,83.6499 37.5,81.5C 38.6477,79.8513 39.981,78.3513 41.5,77C 43.6892,78.4683 46.0226,80.135 48.5,82C 50.8098,82.4966 53.1432,82.6633 55.5,82.5 Z"/></g>
<g><path style="opacity:1" fill="#d4f1fa" d="M 422.5,83.5 C 428.319,82.3475 434.319,82.1808 440.5,83C 443.358,88.7704 444.691,88.6037 444.5,82.5C 447.833,82.5 451.167,82.5 454.5,82.5C 453.928,98.6555 453.261,114.655 452.5,130.5C 452.5,114.833 452.5,99.1667 452.5,83.5C 450.265,83.2053 448.265,83.5386 446.5,84.5C 446.808,86.924 446.474,89.2573 445.5,91.5C 439.376,84.6135 431.709,81.9468 422.5,83.5 Z"/></g>
<g><path style="opacity:1" fill="#3476a5" d="M 56.5,81.5 C 64.8185,81.8227 68.4852,86.156 67.5,94.5C 64.0075,98.8893 59.3408,100.556 53.5,99.5C 53.5,101.833 53.5,104.167 53.5,106.5C 56.3854,106.194 59.0521,106.527 61.5,107.5C 58.8127,107.336 56.146,107.503 53.5,108C 52.3636,109.145 51.3636,110.312 50.5,111.5C 48.3926,110.532 46.0593,110.198 43.5,110.5C 43.9863,122.895 38.8197,126.561 28,121.5C 26,117.5 26,113.5 28,109.5C 29.1127,108.695 30.2794,108.028 31.5,107.5C 34.2469,107.187 36.9135,107.52 39.5,108.5C 37.0312,109.168 34.6979,109.835 32.5,110.5C 29.1265,112.88 28.6265,115.88 31,119.5C 34.4915,121.228 37.3248,120.562 39.5,117.5C 40.8333,111.5 40.8333,105.5 39.5,99.5C 39.1667,99.5 38.8333,99.5 38.5,99.5C 40.6326,97.9095 42.2993,95.9095 43.5,93.5C 43.5,94.5 43.5,95.5 43.5,96.5C 45.8333,96.5 48.1667,96.5 50.5,96.5C 50.3354,93.4816 50.502,90.4816 51,87.5C 52.1932,85.5029 53.6932,83.8362 55.5,82.5C 55.5,81.8333 55.8333,81.5 56.5,81.5 Z"/></g>
<g><path style="opacity:1" fill="#cceef9" d="M 93.5,79.5 C 95.5027,81.9819 98.1694,82.9819 101.5,82.5C 102.295,86.7853 102.628,91.1186 102.5,95.5C 104.5,95.5 106.5,95.5 108.5,95.5C 106.393,96.4682 104.059,96.8016 101.5,96.5C 103.395,85.8961 99.0618,81.3961 88.5,83C 83.9698,86.8759 83.3032,91.3759 86.5,96.5C 85.8333,97.5 85.1667,98.5 84.5,99.5C 84.9819,96.1694 83.9819,93.5027 81.5,91.5C 81.7233,89.6583 82.0566,87.825 82.5,86C 81.6069,83.064 80.6069,80.2307 79.5,77.5C 82.1592,78.4855 84.8259,79.4855 87.5,80.5C 89.5122,80.1604 91.5122,79.8271 93.5,79.5 Z"/></g>
<g><path style="opacity:1" fill="#2074b0" d="M 333.5,95.5 C 333.5,107.167 333.5,118.833 333.5,130.5C 331.833,130.5 330.167,130.5 328.5,130.5C 328.667,119.162 328.5,107.828 328,96.5C 323.807,88.2751 317.641,86.4418 309.5,91C 304.686,94.6442 302.353,99.4776 302.5,105.5C 301.507,113.65 301.174,121.983 301.5,130.5C 300.167,130.5 298.833,130.5 297.5,130.5C 297.826,121.983 297.493,113.65 296.5,105.5C 298.043,96.216 294.377,90.5494 285.5,88.5C 282.64,88.555 280.307,89.555 278.5,91.5C 275.572,92.5914 273.406,94.5914 272,97.5C 270.985,101.44 270.485,105.44 270.5,109.5C 269.509,116.313 269.175,123.313 269.5,130.5C 268.167,130.5 266.833,130.5 265.5,130.5C 265.5,115.167 265.5,99.8333 265.5,84.5C 266.833,84.5 268.167,84.5 269.5,84.5C 269.205,86.7354 269.539,88.7354 270.5,90.5C 272.746,88.2028 275.746,86.0362 279.5,84C 289.214,81.1096 296.547,83.9429 301.5,92.5C 304.195,88.9756 307.529,86.1423 311.5,84C 315.833,83.3333 320.167,83.3333 324.5,84C 329.944,85.9416 332.944,89.775 333.5,95.5 Z"/></g>
<g><path style="opacity:1" fill="#d4f5f9" d="M 74.5,82.5 C 78.485,82.6294 79.8183,84.4628 78.5,88C 76.8659,88.4935 75.1992,88.6602 73.5,88.5C 73.3253,86.3792 73.6586,84.3792 74.5,82.5 Z"/></g>
<g><path style="opacity:1" fill="#def5fb" d="M 334.5,95.5 C 334.167,95.5 333.833,95.5 333.5,95.5C 332.944,89.775 329.944,85.9416 324.5,84C 320.167,83.3333 315.833,83.3333 311.5,84C 307.529,86.1423 304.195,88.9756 301.5,92.5C 296.547,83.9429 289.214,81.1096 279.5,84C 275.746,86.0362 272.746,88.2028 270.5,90.5C 270.5,88.1667 270.5,85.8333 270.5,83.5C 268.5,83.5 266.5,83.5 264.5,83.5C 264.5,99.1667 264.5,114.833 264.5,130.5C 263.819,115.294 263.152,99.9611 262.5,84.5C 262.709,83.914 263.043,83.414 263.5,83C 267.244,82.0715 270.744,82.5715 274,84.5C 284.601,79.885 294.101,80.885 302.5,87.5C 304.727,85.5655 307.061,83.7321 309.5,82C 312.796,81.5426 315.963,80.7093 319,79.5C 322.186,81.6171 325.686,82.9505 329.5,83.5C 332.724,86.8366 334.391,90.8366 334.5,95.5 Z"/></g>
<g><path style="opacity:1" fill="#5c95b3" d="M 446.5,84.5 C 448.265,83.5386 450.265,83.2053 452.5,83.5C 452.5,99.1667 452.5,114.833 452.5,130.5C 452.5,130.833 452.5,131.167 452.5,131.5C 450.265,131.795 448.265,131.461 446.5,130.5C 448.167,130.5 449.833,130.5 451.5,130.5C 451.5,115.167 451.5,99.8333 451.5,84.5C 449.833,84.5 448.167,84.5 446.5,84.5 Z"/></g>
<g><path style="opacity:1" fill="#eef5f9" d="M 33.5,84.5 C 38.5534,85.3899 40.7201,88.3899 40,93.5C 36.6598,97.3907 33.3265,97.3907 30,93.5C 29.4807,89.8679 30.6474,86.8679 33.5,84.5 Z"/></g>
<g><path style="opacity:1" fill="#dff4fa" d="M 56.5,85.5 C 62.6646,84.8293 65.1646,87.496 64,93.5C 61.0164,96.1001 57.5164,97.1001 53.5,96.5C 52.8075,92.2473 53.8075,88.5807 56.5,85.5 Z"/></g>
<g><path style="opacity:1" fill="#2675af" d="M 419.5,83.5 C 420.5,83.5 421.5,83.5 422.5,83.5C 431.709,81.9468 439.376,84.6135 445.5,91.5C 446.474,89.2573 446.808,86.924 446.5,84.5C 448.167,84.5 449.833,84.5 451.5,84.5C 451.5,99.8333 451.5,115.167 451.5,130.5C 449.833,130.5 448.167,130.5 446.5,130.5C 446.5,128.167 446.5,125.833 446.5,123.5C 437.919,131.524 427.919,133.691 416.5,130C 413.335,127.665 410.335,125.165 407.5,122.5C 399.194,105.497 403.194,92.4974 419.5,83.5 Z"/></g>
<g><path style="opacity:1" fill="#1373b6" d="M 446.5,123.5 C 445.791,122.596 444.791,122.263 443.5,122.5C 444.639,119.996 445.306,117.33 445.5,114.5C 446.11,113.609 446.443,112.609 446.5,111.5C 447.633,109.945 448.299,108.111 448.5,106C 447.739,101.101 446.072,96.6013 443.5,92.5C 444.833,92.5 446.167,92.5 447.5,92.5C 447.051,90.0225 447.717,88.0225 449.5,86.5C 450.499,100.818 450.833,115.151 450.5,129.5C 449.5,129.5 448.5,129.5 447.5,129.5C 447.795,127.265 447.461,125.265 446.5,123.5 Z"/></g>
<g><path style="opacity:1" fill="#fbfefd" d="M 444.5,99.5 C 447.353,113.172 442.187,121.505 429,124.5C 424.607,124.371 420.94,122.705 418,119.5C 416.684,118.026 415.684,116.359 415,114.5C 414.333,115.833 413.667,115.833 413,114.5C 411.691,109.934 411.191,105.267 411.5,100.5C 414.148,92.7477 419.648,89.081 428,89.5C 435.805,89.1478 441.305,92.4811 444.5,99.5 Z"/></g>
<g><path style="opacity:1" fill="#e8f1f7" d="M 115.5,84.5 C 120.602,85.4292 122.769,88.4292 122,93.5C 118.714,97.4851 115.381,97.4851 112,93.5C 111.873,90.0842 113.04,87.0842 115.5,84.5 Z"/></g>
<g><path style="opacity:1" fill="#2977b0" d="M 352.5,123.5 C 351.508,131.316 351.174,139.316 351.5,147.5C 349.833,147.5 348.167,147.5 346.5,147.5C 346.5,126.5 346.5,105.5 346.5,84.5C 348.5,84.5 350.5,84.5 352.5,84.5C 352.337,86.8568 352.503,89.1902 353,91.5C 366.239,79.0869 378.906,79.7536 391,93.5C 399.229,110.071 395.063,122.571 378.5,131C 368.198,133.598 359.532,131.098 352.5,123.5 Z"/></g>
<g><path style="opacity:1" fill="#f7fcfd" d="M 363.5,89.5 C 381.82,87.3213 389.987,95.3213 388,113.5C 383.5,123.834 375.667,128.001 364.5,126C 353.935,120.667 350.101,112.167 353,100.5C 355.357,95.6455 358.857,91.9788 363.5,89.5 Z"/></g>
<g><path style="opacity:1" fill="#dbf4f9" d="M 540.5,123.5 C 546.116,110.603 551.449,97.6033 556.5,84.5C 554.208,84.2436 552.041,84.5769 550,85.5C 548.391,89.71 546.558,93.71 544.5,97.5C 545.41,92.4494 547.077,87.616 549.5,83C 551.833,82.3333 554.167,82.3333 556.5,83C 557.097,84.0617 557.43,85.2284 557.5,86.5C 556.749,92.49 554.583,97.8234 551,102.5C 549.383,108.219 547.716,113.552 546,118.5C 543.971,120.033 542.138,121.699 540.5,123.5 Z"/></g>
<g><path style="opacity:1" fill="#e5f8fb" d="M 470.5,83.5 C 468.5,83.5 466.5,83.5 464.5,83.5C 464.5,99.5 464.5,115.5 464.5,131.5C 466.833,131.5 469.167,131.5 471.5,131.5C 471.5,122.5 471.5,113.5 471.5,104.5C 472.074,97.2007 475.74,92.0341 482.5,89C 492.156,87.1804 497.823,91.0137 499.5,100.5C 499.5,110.833 499.5,121.167 499.5,131.5C 501.735,131.795 503.735,131.461 505.5,130.5C 505.667,118.495 505.5,106.495 505,94.5C 500.117,84.6455 492.284,81.1455 481.5,84C 478.039,85.6428 475.039,87.8095 472.5,90.5C 471.539,88.7354 471.205,86.7354 471.5,84.5C 472.151,85.0906 472.818,85.7573 473.5,86.5C 475.585,85.4586 477.252,83.9586 478.5,82C 487.529,80.3116 495.862,81.8116 503.5,86.5C 503.45,88.5901 504.45,89.9234 506.5,90.5C 509.455,103.851 509.955,117.184 508,130.5C 507.5,131 507,131.5 506.5,132C 503.518,132.498 500.518,132.665 497.5,132.5C 497.667,121.495 497.5,110.495 497,99.5C 494.403,90.2969 488.903,88.1303 480.5,93C 479.667,95.1667 478.167,96.6667 476,97.5C 473.742,108.816 472.575,120.483 472.5,132.5C 470.453,132.511 468.453,132.844 466.5,133.5C 464.971,133.471 463.804,132.804 463,131.5C 462.805,126.582 462.305,121.749 461.5,117C 462.712,106.808 462.712,96.8084 461.5,87C 463.037,85.8904 463.703,84.3904 463.5,82.5C 466.059,82.1984 468.393,82.5318 470.5,83.5 Z"/></g>
<g><path style="opacity:1" fill="#6fa3c1" d="M 470.5,83.5 C 471.167,83.5 471.5,83.8333 471.5,84.5C 471.205,86.7354 471.539,88.7354 472.5,90.5C 472.44,91.0431 472.107,91.3764 471.5,91.5C 470.526,89.2573 470.192,86.924 470.5,84.5C 468.833,84.5 467.167,84.5 465.5,84.5C 465.5,99.8333 465.5,115.167 465.5,130.5C 467.167,130.5 468.833,130.5 470.5,130.5C 470.174,121.651 470.507,112.984 471.5,104.5C 471.5,113.5 471.5,122.5 471.5,131.5C 469.167,131.5 466.833,131.5 464.5,131.5C 464.5,115.5 464.5,99.5 464.5,83.5C 466.5,83.5 468.5,83.5 470.5,83.5 Z"/></g>
<g><path style="opacity:1" fill="#f0f9fb" d="M 67.5,94.5 C 66.9184,100.103 68.9184,104.603 73.5,108C 71.9825,109.685 70.3159,111.185 68.5,112.5C 66.4084,110.395 64.0751,108.728 61.5,107.5C 59.0521,106.527 56.3854,106.194 53.5,106.5C 53.5,104.167 53.5,101.833 53.5,99.5C 59.3408,100.556 64.0075,98.8893 67.5,94.5 Z"/></g>
<g><path style="opacity:1" fill="#f0f9fc" d="M 86.5,96.5 C 86.9528,97.4584 87.6195,98.2917 88.5,99C 91.8168,99.4983 95.1501,99.665 98.5,99.5C 98.5,101.833 98.5,104.167 98.5,106.5C 95.6146,106.194 92.9479,106.527 90.5,107.5C 87.9249,108.728 85.5916,110.395 83.5,112.5C 81.6841,111.185 80.0175,109.685 78.5,108C 81.5231,105.823 83.5231,102.989 84.5,99.5C 85.1667,98.5 85.8333,97.5 86.5,96.5 Z"/></g>
<g><path style="opacity:1" fill="#e8fdfd" d="M 43.5,99.5 C 45.8333,99.5 48.1667,99.5 50.5,99.5C 50.5,101.833 50.5,104.167 50.5,106.5C 48.1667,106.5 45.8333,106.5 43.5,106.5C 43.5,104.167 43.5,101.833 43.5,99.5 Z"/></g>
<g><path style="opacity:1" fill="#e6f9fc" d="M 419.5,83.5 C 403.194,92.4974 399.194,105.497 407.5,122.5C 406.325,122.719 405.325,122.386 404.5,121.5C 403.917,119.998 403.084,118.665 402,117.5C 401.05,109.045 401.55,100.711 403.5,92.5C 404.5,92.5 405.5,92.5 406.5,92.5C 406.351,91.448 406.517,90.448 407,89.5C 409.146,88.6242 410.979,87.2909 412.5,85.5C 414.608,84.0562 416.941,83.3896 419.5,83.5 Z"/></g>
<g><path style="opacity:1" fill="#1f73af" d="M 505.5,130.5 C 503.833,130.5 502.167,130.5 500.5,130.5C 500.827,120.319 500.494,110.319 499.5,100.5C 497.823,91.0137 492.156,87.1804 482.5,89C 475.74,92.0341 472.074,97.2007 471.5,104.5C 470.507,112.984 470.174,121.651 470.5,130.5C 468.833,130.5 467.167,130.5 465.5,130.5C 465.5,115.167 465.5,99.8333 465.5,84.5C 467.167,84.5 468.833,84.5 470.5,84.5C 470.192,86.924 470.526,89.2573 471.5,91.5C 472.107,91.3764 472.44,91.0431 472.5,90.5C 475.039,87.8095 478.039,85.6428 481.5,84C 492.284,81.1455 500.117,84.6455 505,94.5C 505.5,106.495 505.667,118.495 505.5,130.5 Z"/></g>
<g><path style="opacity:1" fill="#629bbf" d="M 499.5,100.5 C 500.494,110.319 500.827,120.319 500.5,130.5C 502.167,130.5 503.833,130.5 505.5,130.5C 503.735,131.461 501.735,131.795 499.5,131.5C 499.5,121.167 499.5,110.833 499.5,100.5 Z"/></g>
<g><path style="opacity:1" fill="#67a1c7" d="M 39.5,99.5 C 40.8333,105.5 40.8333,111.5 39.5,117.5C 39.5,115.167 39.5,112.833 39.5,110.5C 37.1667,110.5 34.8333,110.5 32.5,110.5C 34.6979,109.835 37.0312,109.168 39.5,108.5C 36.9135,107.52 34.2469,107.187 31.5,107.5C 31.5,107.167 31.5,106.833 31.5,106.5C 34.1667,106.5 36.8333,106.5 39.5,106.5C 39.5,104.167 39.5,101.833 39.5,99.5 Z"/></g>
<g><path style="opacity:1" fill="#4b89b1" d="M 108.5,99.5 C 109.748,100.334 110.415,101.667 110.5,103.5C 110.76,108.12 110.426,112.787 109.5,117.5C 108.532,115.393 108.198,113.059 108.5,110.5C 106.167,110.5 103.833,110.5 101.5,110.5C 103.698,109.835 106.031,109.168 108.5,108.5C 106.031,107.832 103.698,107.165 101.5,106.5C 103.833,106.5 106.167,106.5 108.5,106.5C 108.5,104.167 108.5,101.833 108.5,99.5 Z"/></g>
<g><path style="opacity:1" fill="#2a70a4" d="M 108.5,95.5 C 108.198,92.9407 108.532,90.6074 109.5,88.5C 108.656,93.1381 109.989,96.8047 113.5,99.5C 113.167,99.5 112.833,99.5 112.5,99.5C 111.167,105.167 111.167,110.833 112.5,116.5C 112.5,117.167 112.5,117.833 112.5,118.5C 112.5,119.833 111.833,120.5 110.5,120.5C 109.89,119.609 109.557,118.609 109.5,117.5C 110.426,112.787 110.76,108.12 110.5,103.5C 110.415,101.667 109.748,100.334 108.5,99.5C 106.167,99.5 103.833,99.5 101.5,99.5C 101.5,101.833 101.5,104.167 101.5,106.5C 103.698,107.165 106.031,107.832 108.5,108.5C 106.031,109.168 103.698,109.835 101.5,110.5C 101.5,110.833 101.5,111.167 101.5,111.5C 98.8047,107.989 95.1381,106.656 90.5,107.5C 92.9479,106.527 95.6146,106.194 98.5,106.5C 98.5,104.167 98.5,101.833 98.5,99.5C 95.1501,99.665 91.8168,99.4983 88.5,99C 87.6195,98.2917 86.9528,97.4584 86.5,96.5C 83.3032,91.3759 83.9698,86.8759 88.5,83C 99.0618,81.3961 103.395,85.8961 101.5,96.5C 104.059,96.8016 106.393,96.4682 108.5,95.5 Z"/></g>
<g><path style="opacity:1" fill="#e4fcfe" d="M 108.5,99.5 C 108.5,101.833 108.5,104.167 108.5,106.5C 106.167,106.5 103.833,106.5 101.5,106.5C 101.5,104.167 101.5,101.833 101.5,99.5C 103.833,99.5 106.167,99.5 108.5,99.5 Z"/></g>
<g><path style="opacity:1" fill="#e8fcfd" d="M 97.5,88.5 C 97.5,90.8333 97.5,93.1667 97.5,95.5C 95.1667,95.5 92.8333,95.5 90.5,95.5C 87.746,93.9472 86.9126,91.6139 88,88.5C 91.2076,84.5993 94.3743,84.5993 97.5,88.5 Z"/></g>
<g><path style="opacity:1" fill="#98ceee" d="M 97.5,88.5 C 98.4731,90.9479 98.8064,93.6146 98.5,96.5C 95.6146,96.8064 92.9479,96.4731 90.5,95.5C 92.8333,95.5 95.1667,95.5 97.5,95.5C 97.5,93.1667 97.5,90.8333 97.5,88.5 Z"/></g>
<g><path style="opacity:1" fill="#4481aa" d="M 112.5,99.5 C 112.5,101.833 112.5,104.167 112.5,106.5C 119.865,105.562 124.531,108.562 126.5,115.5C 125.068,122.044 121.068,124.877 114.5,124C 112.907,123.051 111.574,121.885 110.5,120.5C 111.833,120.5 112.5,119.833 112.5,118.5C 114.836,120.391 117.502,120.891 120.5,120C 123.167,117 123.167,114 120.5,111C 117.854,110.503 115.187,110.336 112.5,110.5C 112.5,112.5 112.5,114.5 112.5,116.5C 111.167,110.833 111.167,105.167 112.5,99.5 Z"/></g>
<g><path style="opacity:1" fill="#2876b0" d="M 193.5,118.5 C 194.456,119.659 195.456,120.826 196.5,122C 193.307,126.508 188.973,129.508 183.5,131C 177.5,131.667 171.5,131.667 165.5,131C 162.138,129.657 159.138,127.824 156.5,125.5C 149.929,118.434 147.762,110.101 150,100.5C 156.424,85.5381 167.591,80.0381 183.5,84C 189.147,85.4954 193.48,88.6621 196.5,93.5C 195.564,94.9744 194.23,95.9744 192.5,96.5C 184.42,88.3247 175.086,86.4914 164.5,91C 154.75,98.5627 152.917,107.729 159,118.5C 166.367,126.895 175.2,128.729 185.5,124C 188.065,121.92 190.732,120.087 193.5,118.5 Z"/></g>
<g><path style="opacity:1" fill="#1e3865" d="M 70.5,91.5 C 71.791,91.2627 72.791,91.596 73.5,92.5C 69.3216,97.501 70.1549,101.834 76,105.5C 78.6619,103.519 80.4952,101.019 81.5,98C 81.1373,95.8077 80.1373,93.9744 78.5,92.5C 79.209,91.596 80.209,91.2627 81.5,91.5C 83.9819,93.5027 84.9819,96.1694 84.5,99.5C 83.5231,102.989 81.5231,105.823 78.5,108C 80.0175,109.685 81.6841,111.185 83.5,112.5C 85.5916,110.395 87.9249,108.728 90.5,107.5C 95.1381,106.656 98.8047,107.989 101.5,111.5C 103.196,116.294 101.863,120.127 97.5,123C 91.8279,124.545 87.1612,123.045 83.5,118.5C 81.5448,119.453 79.8782,120.787 78.5,122.5C 79.8149,124.316 81.3149,125.983 83,127.5C 86.0957,136.405 82.9291,140.905 73.5,141C 67.3524,137.429 66.019,132.596 69.5,126.5C 71.1454,125.521 72.4787,124.188 73.5,122.5C 71.8307,121.329 70.3307,119.996 69,118.5C 66.8439,119.985 64.6772,121.485 62.5,123C 53.4892,124.49 49.4892,120.657 50.5,111.5C 51.3636,110.312 52.3636,109.145 53.5,108C 56.146,107.503 58.8127,107.336 61.5,107.5C 64.0751,108.728 66.4084,110.395 68.5,112.5C 70.3159,111.185 71.9825,109.685 73.5,108C 68.9184,104.603 66.9184,100.103 67.5,94.5C 68.2719,93.3065 69.2719,92.3065 70.5,91.5 Z"/></g>
<g><path style="opacity:1" fill="#e9f3f9" d="M 90.5,110.5 C 97.4883,109.648 99.8216,112.481 97.5,119C 91.3733,121.839 87.8733,120.006 87,113.5C 88.1451,112.364 89.3117,111.364 90.5,110.5 Z"/></g>
<g><path style="opacity:1" fill="#e8f1f7" d="M 56.5,109.5 C 60.6216,109.733 63.6216,111.733 65.5,115.5C 62.2201,121.131 58.3868,121.798 54,117.5C 53.0182,114.225 53.8515,111.559 56.5,109.5 Z"/></g>
<g><path style="opacity:1" fill="#eef5f9" d="M 73.5,92.5 C 75.1667,92.5 76.8333,92.5 78.5,92.5C 80.1373,93.9744 81.1373,95.8077 81.5,98C 80.4952,101.019 78.6619,103.519 76,105.5C 70.1549,101.834 69.3216,97.501 73.5,92.5 Z"/></g>
<g><path style="opacity:1" fill="#e4f0f8" d="M 75.5,110.5 C 77.3166,111.816 78.9833,113.316 80.5,115C 79.392,117.112 77.892,118.946 76,120.5C 74.3149,118.983 72.8149,117.316 71.5,115.5C 72.8569,113.814 74.1902,112.148 75.5,110.5 Z"/></g>
<g><path style="opacity:1" fill="#def7fd" d="M 296.5,105.5 C 296.5,114.167 296.5,122.833 296.5,131.5C 298.167,131.5 299.833,131.5 301.5,131.5C 299.44,132.811 297.274,132.811 295,131.5C 294.667,119.833 294.333,108.167 294,96.5C 291.515,95.0126 289.348,93.1792 287.5,91C 284.445,90.3658 281.445,90.5325 278.5,91.5C 280.307,89.555 282.64,88.555 285.5,88.5C 294.377,90.5494 298.043,96.216 296.5,105.5 Z"/></g>
<g><path style="opacity:1" fill="#e7fbfd" d="M 112.5,118.5 C 112.5,117.833 112.5,117.167 112.5,116.5C 112.5,114.5 112.5,112.5 112.5,110.5C 115.187,110.336 117.854,110.503 120.5,111C 123.167,114 123.167,117 120.5,120C 117.502,120.891 114.836,120.391 112.5,118.5 Z"/></g>
<g><path style="opacity:1" fill="#4a83a4" d="M 296.5,105.5 C 297.493,113.65 297.826,121.983 297.5,130.5C 298.833,130.5 300.167,130.5 301.5,130.5C 301.174,121.983 301.507,113.65 302.5,105.5C 302.826,114.349 302.493,123.016 301.5,131.5C 299.833,131.5 298.167,131.5 296.5,131.5C 296.5,122.833 296.5,114.167 296.5,105.5 Z"/></g>
<g><path style="opacity:1" fill="#e0f4f9" d="M 31.5,106.5 C 31.5,106.833 31.5,107.167 31.5,107.5C 30.2794,108.028 29.1127,108.695 28,109.5C 26,113.5 26,117.5 28,121.5C 38.8197,126.561 43.9863,122.895 43.5,110.5C 46.0593,110.198 48.3926,110.532 50.5,111.5C 49.4892,120.657 53.4892,124.49 62.5,123C 64.6772,121.485 66.8439,119.985 69,118.5C 70.3307,119.996 71.8307,121.329 73.5,122.5C 72.4787,124.188 71.1454,125.521 69.5,126.5C 69.6882,124.897 69.1882,123.563 68,122.5C 62.1983,125.144 56.365,125.144 50.5,122.5C 49.5108,118.893 49.1774,115.226 49.5,111.5C 47.8333,111.5 46.1667,111.5 44.5,111.5C 45.45,123.381 40.1166,127.881 28.5,125C 23.5803,119.523 23.2469,113.689 27.5,107.5C 28.7362,106.754 30.0695,106.421 31.5,106.5 Z"/></g>
<g><path style="opacity:1" fill="#e7fbfd" d="M 32.5,110.5 C 34.8333,110.5 37.1667,110.5 39.5,110.5C 39.5,112.833 39.5,115.167 39.5,117.5C 37.3248,120.562 34.4915,121.228 31,119.5C 28.6265,115.88 29.1265,112.88 32.5,110.5 Z"/></g>
<g><path style="opacity:1" fill="#4683ac" d="M 270.5,90.5 C 269.539,88.7354 269.205,86.7354 269.5,84.5C 268.167,84.5 266.833,84.5 265.5,84.5C 265.5,99.8333 265.5,115.167 265.5,130.5C 266.833,130.5 268.167,130.5 269.5,130.5C 269.175,123.313 269.509,116.313 270.5,109.5C 270.5,116.833 270.5,124.167 270.5,131.5C 268.265,131.795 266.265,131.461 264.5,130.5C 264.5,114.833 264.5,99.1667 264.5,83.5C 266.5,83.5 268.5,83.5 270.5,83.5C 270.5,85.8333 270.5,88.1667 270.5,90.5 Z"/></g>
<g><path style="opacity:1" fill="#558caf" d="M 333.5,95.5 C 333.833,95.5 334.167,95.5 334.5,95.5C 334.5,107.5 334.5,119.5 334.5,131.5C 332.265,131.795 330.265,131.461 328.5,130.5C 330.167,130.5 331.833,130.5 333.5,130.5C 333.5,118.833 333.5,107.167 333.5,95.5 Z"/></g>
<g><path style="opacity:1" fill="#d8f4fa" d="M 444.5,99.5 C 446.25,103.183 446.917,107.183 446.5,111.5C 446.443,112.609 446.11,113.609 445.5,114.5C 440.792,123.92 433.125,127.754 422.5,126C 411.424,120.377 407.757,111.877 411.5,100.5C 411.191,105.267 411.691,109.934 413,114.5C 413.667,115.833 414.333,115.833 415,114.5C 415.684,116.359 416.684,118.026 418,119.5C 420.94,122.705 424.607,124.371 429,124.5C 442.187,121.505 447.353,113.172 444.5,99.5 Z"/></g>
<g><path style="opacity:1" fill="#2978b1" d="M 225.5,82.5 C 245.026,82.5242 254.526,92.1909 254,111.5C 248.631,129.604 236.797,135.771 218.5,130C 205.935,121.302 202.435,109.802 208,95.5C 212.049,88.5993 217.882,84.266 225.5,82.5 Z"/></g>
<g><path style="opacity:1" fill="#d2eff9" d="M 246.5,114.5 C 242.165,123.836 234.831,127.67 224.5,126C 221.379,124.694 218.713,122.86 216.5,120.5C 220.908,122.36 225.408,123.694 230,124.5C 233.241,124.003 236.408,123.336 239.5,122.5C 239.351,121.448 239.517,120.448 240,119.5C 241.507,118.495 242.673,117.162 243.5,115.5C 244.417,114.873 245.417,114.539 246.5,114.5 Z"/></g>
<g><path style="opacity:1" fill="#fbfdfc" d="M 246.5,113.5 C 246.5,113.833 246.5,114.167 246.5,114.5C 245.417,114.539 244.417,114.873 243.5,115.5C 242.673,117.162 241.507,118.495 240,119.5C 239.517,120.448 239.351,121.448 239.5,122.5C 236.408,123.336 233.241,124.003 230,124.5C 225.408,123.694 220.908,122.36 216.5,120.5C 211.288,114.323 210.288,107.656 213.5,100.5C 215.113,98.7304 217.113,97.5637 219.5,97C 220.802,93.8658 223.135,92.0324 226.5,91.5C 229.396,91.7066 232.396,91.8733 235.5,92C 244.071,96.6415 247.738,103.808 246.5,113.5 Z"/></g>
<g><path style="opacity:1" fill="#e3f8fb" d="M 246.5,113.5 C 247.738,103.808 244.071,96.6415 235.5,92C 232.396,91.8733 229.396,91.7066 226.5,91.5C 223.135,92.0324 220.802,93.8658 219.5,97C 217.113,97.5637 215.113,98.7304 213.5,100.5C 217.625,90.5857 224.959,87.0857 235.5,90C 246.367,94.5632 250.034,102.397 246.5,113.5 Z"/></g>
<g><path style="opacity:1" fill="#e6eff6" d="M 74.5,125.5 C 77.0439,126.468 79.2105,128.135 81,130.5C 81.7631,137.053 78.9298,139.219 72.5,137C 70.8131,135.087 70.3131,132.92 71,130.5C 72.4119,128.935 73.5786,127.269 74.5,125.5 Z"/></g>
<g><path style="opacity:1" fill="#daf3f9" d="M 407.5,122.5 C 410.335,125.165 413.335,127.665 416.5,130C 427.919,133.691 437.919,131.524 446.5,123.5C 446.5,125.833 446.5,128.167 446.5,130.5C 448.265,131.461 450.265,131.795 452.5,131.5C 450.107,132.21 447.607,132.877 445,133.5C 444.632,132.09 443.799,131.09 442.5,130.5C 431.67,134.769 421.003,134.435 410.5,129.5C 409.645,127.045 408.645,124.712 407.5,122.5 Z"/></g>
<g><path style="opacity:1" fill="#2b77ae" d="M 527.5,102.5 C 530.09,107.761 532.59,113.094 535,118.5C 538.377,112.412 541.211,106.079 543.5,99.5C 543.833,98.8333 544.167,98.1667 544.5,97.5C 546.558,93.71 548.391,89.71 550,85.5C 552.041,84.5769 554.208,84.2436 556.5,84.5C 551.449,97.6033 546.116,110.603 540.5,123.5C 536.863,131.363 533.197,139.363 529.5,147.5C 527.604,148.466 525.604,148.799 523.5,148.5C 525.86,141.257 528.527,134.09 531.5,127C 525.92,113.004 519.92,99.1706 513.5,85.5C 515.695,84.2309 517.861,84.2309 520,85.5C 522.515,91.1926 525.015,96.8593 527.5,102.5 Z"/></g>
<g><path style="opacity:1" fill="#ddf9fd" d="M 543.5,99.5 C 541.211,106.079 538.377,112.412 535,118.5C 532.59,113.094 530.09,107.761 527.5,102.5C 528.376,102.369 529.043,102.702 529.5,103.5C 531.125,107.379 533.125,111.046 535.5,114.5C 536.88,111.818 537.88,108.984 538.5,106C 539.734,103.322 541.4,101.155 543.5,99.5 Z"/></g>
<g><path style="opacity:1" fill="#e2f6fa" d="M 193.5,118.5 C 194.833,118.5 196.167,118.5 197.5,118.5C 197.286,120.144 197.62,121.644 198.5,123C 186.988,135.675 173.654,137.842 158.5,129.5C 157.295,128.423 156.628,127.09 156.5,125.5C 159.138,127.824 162.138,129.657 165.5,131C 171.5,131.667 177.5,131.667 183.5,131C 188.973,129.508 193.307,126.508 196.5,122C 195.456,120.826 194.456,119.659 193.5,118.5 Z"/></g>
<g><path style="opacity:1" fill="#40778a" d="M 352.5,123.5 C 352.5,131.833 352.5,140.167 352.5,148.5C 350.265,148.795 348.265,148.461 346.5,147.5C 348.167,147.5 349.833,147.5 351.5,147.5C 351.174,139.316 351.508,131.316 352.5,123.5 Z"/></g>
<g><path style="opacity:1" fill="#18346a" d="M 167.5,149.5 C 177.574,147.474 186.074,150.141 193,157.5C 193.497,155.19 193.663,152.857 193.5,150.5C 195.5,150.5 197.5,150.5 199.5,150.5C 199.5,166.167 199.5,181.833 199.5,197.5C 197.5,197.5 195.5,197.5 193.5,197.5C 193.664,194.813 193.497,192.146 193,189.5C 184.229,199.085 174.062,200.918 162.5,195C 152.06,187.274 148.56,177.107 152,164.5C 155.106,157.225 160.272,152.225 167.5,149.5 Z"/></g>
<g><path style="opacity:1" fill="#203a6a" d="M 243.5,152.5 C 237.862,151.78 232.196,151.447 226.5,151.5C 226.5,152.5 226.5,153.5 226.5,154.5C 230.042,154.187 233.375,154.521 236.5,155.5C 228.692,154.57 223.025,157.57 219.5,164.5C 218.248,162.661 218.248,160.828 219.5,159C 218.584,158.626 217.75,158.126 217,157.5C 216.505,155.527 216.338,153.527 216.5,151.5C 215.5,151.5 214.5,151.5 213.5,151.5C 213.5,166.167 213.5,180.833 213.5,195.5C 214.5,195.5 215.5,195.5 216.5,195.5C 216.334,187.493 216.5,179.493 217,171.5C 217.383,170.944 217.883,170.611 218.5,170.5C 218.5,171.5 218.5,172.5 218.5,173.5C 217.508,180.982 217.175,188.648 217.5,196.5C 215.833,196.5 214.167,196.5 212.5,196.5C 212.5,181.167 212.5,165.833 212.5,150.5C 214.5,150.5 216.5,150.5 218.5,150.5C 218.338,152.527 218.505,154.527 219,156.5C 226.281,148.859 234.448,147.526 243.5,152.5 Z"/></g>
<g><path style="opacity:1" fill="#f9fbfd" d="M 168.5,155.5 C 186.784,153.366 194.951,161.366 193,179.5C 187.235,191.796 178.068,195.296 165.5,190C 156.704,181.628 155.204,172.128 161,161.5C 163.478,159.361 165.978,157.361 168.5,155.5 Z"/></g>
<g><path style="opacity:1" fill="#0c2e66" d="M 281.5,162.5 C 281.5,173.833 281.5,185.167 281.5,196.5C 279.833,196.5 278.167,196.5 276.5,196.5C 276.828,184.988 276.495,173.654 275.5,162.5C 272.294,155.775 266.961,153.608 259.5,156C 254.368,159.101 251.368,163.601 250.5,169.5C 249.507,178.318 249.173,187.318 249.5,196.5C 247.833,196.5 246.167,196.5 244.5,196.5C 244.828,185.654 244.494,174.987 243.5,164.5C 243.092,160.083 240.759,157.083 236.5,155.5C 233.375,154.521 230.042,154.187 226.5,154.5C 226.5,153.5 226.5,152.5 226.5,151.5C 232.196,151.447 237.862,151.78 243.5,152.5C 246.26,154.095 248.093,156.428 249,159.5C 254.509,150.673 262.342,147.506 272.5,150C 277.657,152.651 280.657,156.818 281.5,162.5 Z"/></g>
<g><path style="opacity:1" fill="#14305d" d="M 135.5,154.5 C 139.037,157.245 140.704,160.912 140.5,165.5C 140.5,175.833 140.5,186.167 140.5,196.5C 138.833,196.5 137.167,196.5 135.5,196.5C 135.827,187.318 135.493,178.318 134.5,169.5C 134.5,167.5 134.5,165.5 134.5,163.5C 135.268,164.263 135.768,165.263 136,166.5C 136.5,176.161 136.666,185.828 136.5,195.5C 137.5,195.5 138.5,195.5 139.5,195.5C 139.666,185.828 139.5,176.161 139,166.5C 138.265,162.293 137.099,158.293 135.5,154.5 Z"/></g>
<g><path style="opacity:1" fill="#082c68" d="M 298.5,169.5 C 310.167,169.5 321.833,169.5 333.5,169.5C 334.265,168.34 335.265,167.34 336.5,166.5C 337.466,168.396 337.799,170.396 337.5,172.5C 324.163,172.333 310.829,172.5 297.5,173C 296.919,173.893 296.585,174.893 296.5,176C 297.285,179.977 298.285,183.811 299.5,187.5C 298.5,187.5 297.5,187.5 296.5,187.5C 295.094,187.027 294.427,186.027 294.5,184.5C 293.662,179.835 293.162,175.169 293,170.5C 294,168.5 295,166.5 296,164.5C 296.985,166.175 297.819,167.842 298.5,169.5 Z"/></g>
<g><path style="opacity:1" fill="#6a7f99" d="M 140.5,165.5 C 141.494,175.987 141.828,186.654 141.5,197.5C 139.167,197.5 136.833,197.5 134.5,197.5C 134.5,188.167 134.5,178.833 134.5,169.5C 135.493,178.318 135.827,187.318 135.5,196.5C 137.167,196.5 138.833,196.5 140.5,196.5C 140.5,186.167 140.5,175.833 140.5,165.5 Z"/></g>
<g><path style="opacity:1" fill="#5c7391" d="M 275.5,162.5 C 276.495,173.654 276.828,184.988 276.5,196.5C 278.167,196.5 279.833,196.5 281.5,196.5C 281.5,185.167 281.5,173.833 281.5,162.5C 282.495,173.988 282.828,185.655 282.5,197.5C 280.167,197.5 277.833,197.5 275.5,197.5C 275.5,185.833 275.5,174.167 275.5,162.5 Z"/></g>
<g><path style="opacity:1" fill="#4e637c" d="M 339.5,167.5 C 340.468,169.607 340.802,171.941 340.5,174.5C 326.5,174.5 312.5,174.5 298.5,174.5C 311.99,173.504 325.656,173.171 339.5,173.5C 339.5,171.5 339.5,169.5 339.5,167.5 Z"/></g>
<g><path style="opacity:1" fill="#0c2e67" d="M 135.5,154.5 C 137.099,158.293 138.265,162.293 139,166.5C 139.5,176.161 139.666,185.828 139.5,195.5C 138.5,195.5 137.5,195.5 136.5,195.5C 136.666,185.828 136.5,176.161 136,166.5C 135.768,165.263 135.268,164.263 134.5,163.5C 127.828,152.573 119.661,151.573 110,160.5C 108.007,162.818 106.841,165.484 106.5,168.5C 105.506,177.652 105.173,186.985 105.5,196.5C 103.833,196.5 102.167,196.5 100.5,196.5C 100.5,181.167 100.5,165.833 100.5,150.5C 102.167,150.5 103.833,150.5 105.5,150.5C 105.192,152.924 105.526,155.257 106.5,157.5C 107.107,157.376 107.44,157.043 107.5,156.5C 113.394,149.884 120.728,147.718 129.5,150C 132.106,150.792 134.106,152.292 135.5,154.5 Z"/></g>
<g><path style="opacity:1" fill="#7488a6" d="M 107.5,156.5 C 107.44,157.043 107.107,157.376 106.5,157.5C 105.526,155.257 105.192,152.924 105.5,150.5C 103.833,150.5 102.167,150.5 100.5,150.5C 100.5,165.833 100.5,181.167 100.5,196.5C 102.167,196.5 103.833,196.5 105.5,196.5C 105.173,186.985 105.506,177.652 106.5,168.5C 106.5,178.167 106.5,187.833 106.5,197.5C 104.167,197.5 101.833,197.5 99.5,197.5C 99.5,181.5 99.5,165.5 99.5,149.5C 101.833,149.5 104.167,149.5 106.5,149.5C 106.198,152.059 106.532,154.393 107.5,156.5 Z"/></g>
<g><path style="opacity:1" fill="#415771" d="M 218.5,173.5 C 218.5,181.5 218.5,189.5 218.5,197.5C 216.265,197.795 214.265,197.461 212.5,196.5C 214.167,196.5 215.833,196.5 217.5,196.5C 217.175,188.648 217.508,180.982 218.5,173.5 Z"/></g>
<g><path style="opacity:1" fill="#0b2e69" d="M 219.5,164.5 C 219.167,166.5 218.833,168.5 218.5,170.5C 217.883,170.611 217.383,170.944 217,171.5C 216.5,179.493 216.334,187.493 216.5,195.5C 215.5,195.5 214.5,195.5 213.5,195.5C 213.5,180.833 213.5,166.167 213.5,151.5C 214.5,151.5 215.5,151.5 216.5,151.5C 216.338,153.527 216.505,155.527 217,157.5C 217.75,158.126 218.584,158.626 219.5,159C 218.248,160.828 218.248,162.661 219.5,164.5 Z"/></g>
<g><path style="opacity:1" fill="#193469" d="M 339.5,167.5 C 339.5,169.5 339.5,171.5 339.5,173.5C 325.656,173.171 311.99,173.504 298.5,174.5C 301.575,191.935 311.242,196.769 327.5,189C 330.021,186.78 332.188,184.28 334,181.5C 335.586,182.376 337.086,183.376 338.5,184.5C 329.678,198.381 317.678,201.881 302.5,195C 299.882,192.894 297.882,190.394 296.5,187.5C 297.5,187.5 298.5,187.5 299.5,187.5C 298.285,183.811 297.285,179.977 296.5,176C 296.585,174.893 296.919,173.893 297.5,173C 310.829,172.5 324.163,172.333 337.5,172.5C 337.799,170.396 337.466,168.396 336.5,166.5C 335.265,167.34 334.265,168.34 333.5,169.5C 333.5,169.167 333.5,168.833 333.5,168.5C 328.002,155.288 318.668,151.788 305.5,158C 302.619,160.279 300.619,163.112 299.5,166.5C 298.596,167.209 298.263,168.209 298.5,169.5C 297.819,167.842 296.985,166.175 296,164.5C 295,166.5 294,168.5 293,170.5C 293.162,175.169 293.662,179.835 294.5,184.5C 288.588,170.255 292.255,159.089 305.5,151C 316.726,147.292 326.559,149.458 335,157.5C 337.324,160.48 338.824,163.813 339.5,167.5 Z"/></g>
<g><path style="opacity:1" fill="#5d7595" d="M 299.5,166.5 C 310.451,168.478 321.784,169.144 333.5,168.5C 333.5,168.833 333.5,169.167 333.5,169.5C 321.833,169.5 310.167,169.5 298.5,169.5C 298.263,168.209 298.596,167.209 299.5,166.5 Z"/></g>
<g><path style="opacity:1" fill="#f6fafd" d="M 333.5,168.5 C 321.784,169.144 310.451,168.478 299.5,166.5C 300.619,163.112 302.619,160.279 305.5,158C 318.668,151.788 328.002,155.288 333.5,168.5 Z"/></g>
<g><path style="opacity:1" fill="#6a7f9b" d="M 243.5,164.5 C 244.494,174.987 244.828,185.654 244.5,196.5C 246.167,196.5 247.833,196.5 249.5,196.5C 249.173,187.318 249.507,178.318 250.5,169.5C 250.5,178.833 250.5,188.167 250.5,197.5C 248.167,197.5 245.833,197.5 243.5,197.5C 243.5,186.5 243.5,175.5 243.5,164.5 Z"/></g>
</svg>
